<svg width="40" height="40" viewBox="0 0 40 40" fill="none" xmlns="http://www.w3.org/2000/svg">
<path d="M35.2414 17.2723C35.7868 17.3587 36.2991 16.9866 36.3855 16.4411L37.7934 7.5519C37.8798 7.00642 37.5076 6.49417 36.9621 6.40778C36.4167 6.32138 35.9044 6.69355 35.818 7.23903L34.5665 15.1405L26.665 13.8891C26.1196 13.8027 25.6073 14.1748 25.5209 14.7203C25.4345 15.2658 25.8067 15.778 26.3522 15.8644L35.2414 17.2723ZM33.4132 15.2544L34.5888 16.8724L36.2068 15.6969L35.0312 14.0788L33.4132 15.2544Z" fill="#E65F2B"/>
<path d="M20 12V23.2L13.6 26.4" stroke="#E65F2B" stroke-width="3.2" stroke-linecap="round"/>
<mask id="path-3-inside-1_293_476" fill="white">
<path d="M23.5141 35.6093C20.478 36.2928 17.3084 36.0761 14.3936 34.9856C11.4788 33.8951 8.94524 31.9782 7.1033 29.4697C5.26137 26.9612 4.19098 23.9699 4.02325 20.8623C3.85552 17.7547 4.59773 14.6656 6.15896 11.9734C7.7202 9.28124 10.0327 7.10279 12.8132 5.7049C15.5937 4.307 18.7216 3.75035 21.8136 4.10312C24.9057 4.45589 27.8278 5.70276 30.222 7.69103C32.6162 9.67929 34.3786 12.3226 35.2933 15.2973L32.6306 16.1161C31.8752 13.6593 30.4196 11.4762 28.4423 9.83409C26.4649 8.19199 24.0516 7.16221 21.4979 6.87086C18.9441 6.57951 16.3609 7.03924 14.0645 8.19375C11.768 9.34827 9.85818 11.1474 8.56876 13.3709C7.27935 15.5944 6.66637 18.1456 6.80489 20.7122C6.94342 23.2788 7.82744 25.7492 9.34869 27.821C10.8699 29.8927 12.9624 31.4759 15.3697 32.3765C17.777 33.2772 20.3948 33.4562 22.9023 32.8916L23.5141 35.6093Z"/>
</mask>
<path d="M23.5141 35.6093C20.478 36.2928 17.3084 36.0761 14.3936 34.9856C11.4788 33.8951 8.94524 31.9782 7.1033 29.4697C5.26137 26.9612 4.19098 23.9699 4.02325 20.8623C3.85552 17.7547 4.59773 14.6656 6.15896 11.9734C7.7202 9.28124 10.0327 7.10279 12.8132 5.7049C15.5937 4.307 18.7216 3.75035 21.8136 4.10312C24.9057 4.45589 27.8278 5.70276 30.222 7.69103C32.6162 9.67929 34.3786 12.3226 35.2933 15.2973L32.6306 16.1161C31.8752 13.6593 30.4196 11.4762 28.4423 9.83409C26.4649 8.19199 24.0516 7.16221 21.4979 6.87086C18.9441 6.57951 16.3609 7.03924 14.0645 8.19375C11.768 9.34827 9.85818 11.1474 8.56876 13.3709C7.27935 15.5944 6.66637 18.1456 6.80489 20.7122C6.94342 23.2788 7.82744 25.7492 9.34869 27.821C10.8699 29.8927 12.9624 31.4759 15.3697 32.3765C17.777 33.2772 20.3948 33.4562 22.9023 32.8916L23.5141 35.6093Z" fill="#D9D9D9" fill-opacity="0.24" stroke="#E65F2B" stroke-width="6.4" mask="url(#path-3-inside-1_293_476)"/>
<mask id="path-4-inside-2_293_476" fill="white">
<path d="M30.5897 31.9941C28.9365 33.4537 26.9995 34.5558 24.9001 35.2312L24.047 32.5793C25.7808 32.0215 27.3806 31.1113 28.746 29.9059L30.5897 31.9941Z"/>
</mask>
<path d="M30.5897 31.9941C28.9365 33.4537 26.9995 34.5558 24.9001 35.2312L24.047 32.5793C25.7808 32.0215 27.3806 31.1113 28.746 29.9059L30.5897 31.9941Z" fill="#D9D9D9" fill-opacity="0.24" stroke="#E65F2B" stroke-width="6.4" mask="url(#path-4-inside-2_293_476)"/>
<mask id="path-5-inside-3_293_476" fill="white">
<path d="M34.6303 26.4772C33.9167 28.089 32.9416 29.5719 31.7446 30.8658L29.6998 28.974C30.6884 27.9054 31.4937 26.6807 32.0831 25.3495L34.6303 26.4772Z"/>
</mask>
<path d="M34.6303 26.4772C33.9167 28.089 32.9416 29.5719 31.7446 30.8658L29.6998 28.974C30.6884 27.9054 31.4937 26.6807 32.0831 25.3495L34.6303 26.4772Z" fill="#D9D9D9" fill-opacity="0.24" stroke="#E65F2B" stroke-width="6.4" mask="url(#path-5-inside-3_293_476)"/>
<mask id="path-6-inside-4_293_476" fill="white">
<path d="M35.9666 21.0336C35.8784 22.3952 35.6165 23.7399 35.1871 25.035L32.543 24.1584C32.8976 23.0888 33.1139 21.9782 33.1867 20.8536L35.9666 21.0336Z"/>
</mask>
<path d="M35.9666 21.0336C35.8784 22.3952 35.6165 23.7399 35.1871 25.035L32.543 24.1584C32.8976 23.0888 33.1139 21.9782 33.1867 20.8536L35.9666 21.0336Z" fill="#D9D9D9" fill-opacity="0.24" stroke="#E65F2B" stroke-width="6.4" mask="url(#path-6-inside-4_293_476)"/>
</svg>
