<svg width="36" height="36" viewBox="0 0 36 36" fill="white" xmlns="http://www.w3.org/2000/svg">
<path d="M15.6667 17.3333C19.3486 17.3333 22.3333 14.3486 22.3333 10.6667C22.3333 6.98477 19.3486 4 15.6667 4C11.9848 4 9 6.98477 9 10.6667C9 14.3486 11.9848 17.3333 15.6667 17.3333Z" fill="white" stroke="white" stroke-width="2" stroke-linecap="round" stroke-linejoin="round"/>
<path d="M26.3333 32C26.3333 29.1711 25.2095 26.458 23.2091 24.4576C21.2088 22.4572 18.4956 21.3334 15.6667 21.3334C12.8377 21.3334 10.1246 22.4572 8.12419 24.4576C6.12381 26.458 5 29.1711 5 32" stroke="#white" stroke-width="2" stroke-linecap="round" stroke-linejoin="round"/>
<path d="M15.6667 21.3334C12.8377 21.3334 10.1246 22.4572 8.12419 24.4576C6.12381 26.458 5 29.1711 5 32H26.3333C26.3333 29.1711 25.2095 26.458 23.2091 24.4576C21.2088 22.4572 18.4956 21.3334 15.6667 21.3334Z" fill="#white" stroke="#white" stroke-width="2" stroke-linecap="round" stroke-linejoin="round"/>
<path d="M33.4396 22.4741C33.5452 22.593 33.6046 22.7542 33.6046 22.9224C33.6046 23.0905 33.5452 23.2517 33.4396 23.3706C33.3339 23.4895 33.1906 23.5563 33.0411 23.5563C32.8917 23.5563 32.7484 23.4895 32.6427 23.3706L29.6666 20.0214L26.6896 23.3695C26.5839 23.4884 26.4406 23.5552 26.2911 23.5552C26.1417 23.5552 25.9984 23.4884 25.8927 23.3695C25.787 23.2507 25.7277 23.0894 25.7277 22.9213C25.7277 22.7532 25.787 22.5919 25.8927 22.4731L28.8697 19.125L25.8936 15.7758C25.788 15.6569 25.7286 15.4957 25.7286 15.3276C25.7286 15.1594 25.788 14.9982 25.8936 14.8793C25.9993 14.7604 26.1426 14.6936 26.2921 14.6936C26.4415 14.6936 26.5848 14.7604 26.6905 14.8793L29.6666 18.2285L32.6436 14.8788C32.7493 14.7599 32.8926 14.6931 33.0421 14.6931C33.1915 14.6931 33.3348 14.7599 33.4405 14.8788C33.5462 14.9977 33.6055 15.1589 33.6055 15.327C33.6055 15.4951 33.5462 15.6564 33.4405 15.7753L30.4635 19.125L33.4396 22.4741Z" fill="white"/>
</svg>
