<svg width="40" height="40" viewBox="0 0 40 40" fill="none" xmlns="http://www.w3.org/2000/svg">
<path d="M35.7143 13.5715V31.0715C35.7143 32.3028 35.2251 33.4838 34.3544 34.3545C33.4837 35.2252 32.3028 35.7143 31.0714 35.7143H8.92856C7.6972 35.7143 6.51627 35.2252 5.64557 34.3545C4.77486 33.4838 4.28571 32.3028 4.28571 31.0715V13.5715H35.7143ZM12.4871 25.0015C12.0135 25.0015 11.5593 25.1896 11.2244 25.5245C10.8896 25.8594 10.7014 26.3136 10.7014 26.7872C10.7014 27.2608 10.8896 27.715 11.2244 28.0499C11.5593 28.3848 12.0135 28.5729 12.4871 28.5729C12.9607 28.5729 13.4149 28.3848 13.7498 28.0499C14.0847 27.715 14.2728 27.2608 14.2728 26.7872C14.2728 26.3136 14.0847 25.8594 13.7498 25.5245C13.4149 25.1896 12.9607 25.0015 12.4871 25.0015ZM19.9943 25.0015C19.5207 25.0015 19.0665 25.1896 18.7316 25.5245C18.3967 25.8594 18.2086 26.3136 18.2086 26.7872C18.2086 27.2608 18.3967 27.715 18.7316 28.0499C19.0665 28.3848 19.5207 28.5729 19.9943 28.5729C20.4679 28.5729 20.9221 28.3848 21.257 28.0499C21.5919 27.715 21.78 27.2608 21.78 26.7872C21.78 26.3136 21.5919 25.8594 21.257 25.5245C20.9221 25.1896 20.4679 25.0015 19.9943 25.0015ZM12.4871 17.8586C12.0135 17.8586 11.5593 18.0468 11.2244 18.3816C10.8896 18.7165 10.7014 19.1707 10.7014 19.6443C10.7014 20.1179 10.8896 20.5721 11.2244 20.907C11.5593 21.2419 12.0135 21.4301 12.4871 21.4301C12.9607 21.4301 13.4149 21.2419 13.7498 20.907C14.0847 20.5721 14.2728 20.1179 14.2728 19.6443C14.2728 19.1707 14.0847 18.7165 13.7498 18.3816C13.4149 18.0468 12.9607 17.8586 12.4871 17.8586ZM19.9943 17.8586C19.5207 17.8586 19.0665 18.0468 18.7316 18.3816C18.3967 18.7165 18.2086 19.1707 18.2086 19.6443C18.2086 20.1179 18.3967 20.5721 18.7316 20.907C19.0665 21.2419 19.5207 21.4301 19.9943 21.4301C20.4679 21.4301 20.9221 21.2419 21.257 20.907C21.5919 20.5721 21.78 20.1179 21.78 19.6443C21.78 19.1707 21.5919 18.7165 21.257 18.3816C20.9221 18.0468 20.4679 17.8586 19.9943 17.8586ZM27.5 17.8586C27.0264 17.8586 26.5722 18.0468 26.2373 18.3816C25.9024 18.7165 25.7143 19.1707 25.7143 19.6443C25.7143 20.1179 25.9024 20.5721 26.2373 20.907C26.5722 21.2419 27.0264 21.4301 27.5 21.4301C27.9736 21.4301 28.4278 21.2419 28.7627 20.907C29.0976 20.5721 29.2857 20.1179 29.2857 19.6443C29.2857 19.1707 29.0976 18.7165 28.7627 18.3816C28.4278 18.0468 27.9736 17.8586 27.5 17.8586ZM31.0714 4.28577C32.3028 4.28577 33.4837 4.77492 34.3544 5.64563C35.2251 6.51633 35.7143 7.69726 35.7143 8.92862V11.4286H4.28571V8.92862C4.28571 7.69726 4.77486 6.51633 5.64557 5.64563C6.51627 4.77492 7.6972 4.28577 8.92856 4.28577H31.0714Z" fill="#464DF0"/>
</svg>
