<svg width="40" height="40" viewBox="0 0 40 40" fill="none" xmlns="http://www.w3.org/2000/svg">
<path d="M20.0477 19.8095C23.8611 19.8095 26.9524 16.7182 26.9524 12.9048C26.9524 9.09137 23.8611 6 20.0477 6C16.2343 6 13.1429 9.09137 13.1429 12.9048C13.1429 16.7182 16.2343 19.8095 20.0477 19.8095Z" fill="#64B58A" stroke="#64B58A" stroke-width="2" stroke-linecap="round" stroke-linejoin="round"/>
<path d="M31.0953 35C31.0953 32.07 29.9313 29.26 27.8595 27.1882C25.7877 25.1163 22.9776 23.9524 20.0476 23.9524C17.1176 23.9524 14.3076 25.1163 12.2358 27.1882C10.1639 29.26 9 32.07 9 35" stroke="#64B58A" stroke-width="2" stroke-linecap="round" stroke-linejoin="round"/>
<path d="M20.0476 23.9524C17.1176 23.9524 14.3076 25.1163 12.2358 27.1882C10.1639 29.26 9 32.07 9 35H31.0953C31.0953 32.07 29.9313 29.26 27.8595 27.1882C25.7877 25.1163 22.9776 23.9524 20.0476 23.9524Z" fill="#64B58A" stroke="#64B58A" stroke-width="2" stroke-linecap="round" stroke-linejoin="round"/>
</svg>
