<svg width="36" height="36" viewBox="0 0 36 36" fill="none" xmlns="http://www.w3.org/2000/svg">
<path d="M17.9995 4C17.4199 4 16.864 4.22857 16.4542 4.63542C16.0443 5.04227 15.8141 5.59408 15.8141 6.16945V17.0167C15.8141 17.5921 16.0443 18.1439 16.4542 18.5507C16.864 18.9576 17.4199 19.1861 17.9995 19.1861C18.5791 19.1861 19.1349 18.9576 19.5447 18.5507C19.9546 18.1439 20.1848 17.5921 20.1848 17.0167V6.16945C20.1848 5.59408 19.9546 5.04227 19.5447 4.63542C19.1349 4.22857 18.5791 4 17.9995 4ZM10.1802 6.81378C9.86498 6.85331 9.56811 6.98295 9.32574 7.18692C7.66389 8.4875 6.3211 10.1456 5.39857 12.0362C4.47603 13.9268 3.99783 16.0007 4.00001 18.1014C4.00001 25.7574 10.2851 32 17.9995 32C25.7138 32 32 25.7574 32 18.1014C32 13.6833 29.9217 9.7306 26.6732 7.18584C26.505 7.05229 26.312 6.95294 26.1051 6.89345C25.8983 6.83396 25.6816 6.81549 25.4676 6.83911C25.2536 6.86273 25.0463 6.92797 24.8577 7.03111C24.669 7.13424 24.5027 7.27326 24.3682 7.4402C24.2336 7.60715 24.1335 7.79877 24.0736 8.00412C24.0137 8.20946 23.9951 8.42452 24.0189 8.637C24.0427 8.84948 24.1084 9.05523 24.2123 9.2425C24.3162 9.42977 24.4562 9.59489 24.6244 9.72843C25.9022 10.7243 26.9352 11.9956 27.645 13.4462C28.3549 14.8968 28.7232 16.4887 28.722 18.1014C28.7254 19.5002 28.4504 20.8859 27.9128 22.1789C27.3752 23.4719 26.5855 24.6467 25.5891 25.6358C24.5928 26.6249 23.4093 27.4088 22.1069 27.9426C20.8044 28.4763 19.4085 28.7493 17.9995 28.7458C16.5904 28.7493 15.1945 28.4763 13.892 27.9426C12.5896 27.4088 11.4062 26.6249 10.4098 25.6358C9.41343 24.6467 8.62375 23.4719 8.08612 22.1789C7.54849 20.8859 7.2735 19.5002 7.27696 18.1014C7.27605 16.4888 7.64445 14.897 8.35431 13.4464C9.06418 11.9959 10.0969 10.7245 11.3745 9.72843C11.6639 9.51267 11.8732 9.20789 11.9698 8.86165C12.0663 8.51541 12.0448 8.14717 11.9084 7.81438C11.772 7.48159 11.5286 7.20297 11.2159 7.02196C10.9033 6.84096 10.5391 6.76776 10.1802 6.81378Z" fill="white"/>
</svg>
